<?xml version="1.0" encoding="utf-8"?>
<!-- Generator: Adobe Illustrator 16.0.0, SVG Export Plug-In . SVG Version: 6.00 Build 0)  -->
<!DOCTYPE svg PUBLIC "-//W3C//DTD SVG 1.1//EN" "http://www.w3.org/Graphics/SVG/1.1/DTD/svg11.dtd">
<svg version="1.1" id="Layer_1" xmlns="http://www.w3.org/2000/svg" xmlns:xlink="http://www.w3.org/1999/xlink" x="0px" y="0px"
	 width="864px" height="864px" viewBox="0 0 864 864" enable-background="new 0 0 864 864" xml:space="preserve">
<path fill-rule="evenodd" clip-rule="evenodd" fill="#7F1817" d="M223.299,662.84c-19.287,5.715-37.87,11.983-56.847,16.645
	c-21.747,5.343-43.7,10.853-66.469,5.884c-17.289-3.772-34.268-8.383-48.216-20.029c-10.938-9.133-13.879-23.784-8.398-40.159
	c4.033-12.052,10.586-23.888,18.464-33.893c15.863-20.143,33.387-38.979,50.25-58.334c2.163-2.482,4.472-4.838,6.649-7.183
	c-13.179-21.561-12.197-51.288,3.363-69.377c17.68-20.551,48.08-25.61,65.675,0.218c0.258,0.378,0.804,0.559,1.63,1.105
	c10.53-11.899,21.161-23.796,31.662-35.806c17.605-20.134,35.066-40.395,52.701-60.502c24.505-27.941,49.065-55.835,73.694-83.668
	c21.93-24.783,43.363-50.052,66.251-73.921c11.275-11.758,23.526-23.444,40.001-28.479c9.539-2.916,18.487-1.673,26.87,3.869
	c22.723,15.022,36.436,37.332,49.373,60.383c9.974,17.771,13.457,37.166,15.542,57.036c2.076,19.786,0.377,39.222-6.581,57.827
	c-2.411,6.446-7.558,11.834-11.138,17.892c-1.801,3.045-3.919,6.451-4.109,9.795c-0.551,9.641-0.194,19.334-0.194,30.684
	c6.715-4.338,12.233-7.712,17.556-11.371c53.517-36.794,106.347-74.645,163.133-106.417c14.172-7.929,28.152-16.409,42.985-22.881
	c12.64-5.515,26.534-8.334,39.711-0.624c11.499,6.729,18.022,17.99,23.257,29.569c12.169,26.919,18.124,55.616,22.429,84.691
	c1.267,8.554,3.282,17.045,3.887,25.641c1.402,19.933,0.619,40.243-13.892,55.497c-29.151,30.642-39.573,68.5-45.491,108.586
	c-2.826,19.15-5.967,38.259-9.345,57.318c-0.377,2.124-2.998,5.088-5.014,5.492c-21.542,4.323-43.544,8.975-65.105,3.205
	c-12.401-3.317-23.572-11.419-35.041-17.83c-1.441-0.807-1.794-4.437-1.816-6.767c-0.149-16.082-0.079-32.165-1.788-49.399
	c-6.449,7.586-13.129,14.987-19.302,22.79c-18.736,23.686-37.251,47.545-55.9,71.3c-20.182,25.707-48.354,34.605-79.305,39.155
	c-48.453,7.122-97.14,8.594-145.91,7.573c-26.214-0.549-52.675-1.633-78.479-5.828C255.795,698.587,235.274,685.999,223.299,662.84z
	 M418.729,445.808c-13.359,14.597-25.364,27.499-36.991,40.733c-1.218,1.385-1.162,5.642,0.044,6.908
	c1.192,1.251,5.037,1.285,6.948,0.322c9.948-5.005,19.509-10.785,29.506-15.684c4.057-1.987,5.098-4.375,4.393-8.396
	C421.406,462.708,420.334,455.696,418.729,445.808z"/>
<g>
	<path fill-rule="evenodd" clip-rule="evenodd" fill="#D1C2B5" d="M399.941,505.229c27.483-15.126,55.933-29.354,82.869-46.026
		c25.434-15.741,49.204-34.155,73.831-51.213c60.502-41.908,121.289-83.391,186.109-118.496c6.587-3.568,14.206-5.367,21.523-7.33
		c1.256-0.336,4.72,2.491,4.912,4.122c0.848,7.205-1.652,13.551-7.008,18.583c-17.583,16.512-34.958,33.254-52.854,49.42
		c-23.63,21.345-47.516,42.415-71.582,63.267c-37.081,32.128-76.499,61.026-119.513,84.823c-12.775,7.068-26.861,9.237-41.08,10.83
		c-1.414,0.158-3.489,0.207-4.267-0.623c-11.813-12.594-26.291-9.727-39.723-5.317C421.464,511.11,410.828,515.285,399.941,505.229z
		"/>
	<path fill-rule="evenodd" clip-rule="evenodd" fill="#D1C2B5" d="M198.369,469.722c10.13-11.202,20.489-22.292,30.441-33.735
		c22.879-26.306,45.405-52.919,68.357-79.161c37.751-43.165,75.477-86.357,113.771-129.037
		c10.436-11.631,22.761-21.591,34.466-32.042c2.58-2.304,6.09-3.731,9.378-5.046c9.118-3.646,13.387-1.628,12.097,8.089
		c-1.334,10.054-4.99,20.322-9.847,29.297c-26.313,48.614-57.948,93.623-95.17,134.51c-25.903,28.454-52.573,56.214-79.053,84.139
		c-6.766,7.136-14.008,13.832-21.26,20.482c-1.73,1.587-4.287,2.456-6.611,3.181c-8.245,2.568-16.518,5.062-24.859,7.284
		c-2.24,0.597-4.932,0.699-7.128,0.053C215.039,475.405,207.251,472.658,198.369,469.722z"/>
</g>
<g>
	<path fill-rule="evenodd" clip-rule="evenodd" fill="#CB2027" d="M363.364,566.907c9.068,8.793,18.994,14.556,32.199,12.431
		c1.717-0.275,4.769,1.799,5.714,3.576c13.297,24.986,45.647,26.242,62.042,12.434c10.679-8.994,17.086-22.731,18.758-37.438
		c1.108-9.75,1.54-19.577,2.229-28.776c14.106-5.001,30.023-8.595,43.868-16.039c19.872-10.684,38.403-23.925,57.188-36.549
		c14.795-9.943,29.399-20.227,43.526-31.09c8.592-6.605,16.007-14.722,24.143-21.944c14.24-12.642,28.706-25.029,42.938-37.682
		c19.995-17.777,39.974-35.576,59.716-53.631c6.177-5.648,11.535-12.188,17.331-18.259c6.495-6.801,11.809-14.095,11.852-25.127
		c1.568,1.909,3.357,3.68,4.672,5.75c15.225,23.973,21.67,50.924,26.091,78.463c2.462,15.337,4.612,30.755,6.072,46.215
		c3.17,33.566-23.77,63.448-53.477,71.009c-39.11,9.952-71.717,31.479-103.818,55.083c-24.461,17.987-38.823,43.352-57.016,66.083
		c-15.104,18.872-30.885,37.403-48.11,54.308c-12.173,11.945-29.393,16.184-45.965,19.177c-55.14,9.957-110.938,9.016-166.623,8.339
		c-21.366-0.26-42.878-1.962-63.997-5.163c-20.371-3.089-37.008-13.519-46.865-32.807c-6.938-13.578-3.614-36.085,9.804-49.561
		c9.414-9.455,20.833-16.994,31.75-24.842c8.476-6.093,17.77-11.043,26.294-17.075c5.031-3.561,8.74-3.496,13.467,0.51
		c9.45,8.007,19.967,13.373,32.834,8.665C354.399,571.349,358.584,569.094,363.364,566.907z"/>
	<path fill-rule="evenodd" clip-rule="evenodd" fill="#CB2027" d="M279.745,470.659c14.647-14.639,30.71-30.464,46.496-46.56
		c8.685-8.855,17.079-18.011,25.291-27.309c12.444-14.089,24.948-28.147,36.838-42.699c34.384-42.077,66.577-85.644,89.175-135.491
		c1.358-2.996,2.4-6.171,3.229-9.356c0.76-2.925,1.032-5.976,1.783-10.595c3.365,3.24,6.151,5.537,8.48,8.229
		c15.37,17.758,27.606,37.802,34.451,59.988c8.05,26.092,9.082,53.244,1.176,79.951c-3.005,10.154-10.087,17.835-18.787,23.362
		c-14.38,9.136-29.497,17.11-43.9,26.211c-13.509,8.535-26.887,17.378-39.623,27.011c-20.731,15.679-39.451,33.536-54.54,54.913
		c-0.406,0.574-1.22,0.859-1.2,0.846c-5.917-2.075-11.207-4.952-16.758-5.602c-6.069-0.709-13.49-1.302-18.363,1.482
		c-11.887,6.791-23.745,14.733-28.376,28.775c-3.184,9.651-5.301,19.67-7.539,29.604c-0.521,2.31-0.365,5.404,0.801,7.343
		c3.764,6.256,1.109,9.011-4.28,12.592c-19.069,12.675-38.64,24.886-56.172,39.49c-14.351,11.954-21.103,29.034-19.304,48.433
		c0.392,4.227-0.038,7.13-5.016,8.507c-21.317,5.9-42.46,12.438-63.818,18.186c-14.826,3.989-29.848,6.234-45.393,3.424
		c-15.032-2.717-29.221-7.32-41.711-16.13c-9.469-6.68-8.318-17.077-5.336-25.798c3.484-10.19,8.382-20.558,15.128-28.845
		c17.167-21.09,35.738-41.036,53.664-61.514c2.789-3.187,5.482-3.769,9.348-1.838c11.269,5.625,22.332,3.79,32.756-2.222
		c3.617-2.085,5.824-1.624,8.695,0.898c8.221,7.223,17.667,10.718,28.839,9.463c1.76-0.198,4.704,1.814,5.605,3.571
		c12.393,24.155,46.568,26.528,63.165,11.141c12.498-11.587,18.456-26.655,19.158-43.624c0.294-7.118,1.316-14.766-0.772-21.283
		C290.327,487.075,284.856,479.854,279.745,470.659z"/>
	<path fill-rule="evenodd" clip-rule="evenodd" fill="#CB2027" d="M780.584,502.964c-4.112,13.044-9.029,25.431-11.832,38.279
		c-4.446,20.378-7.482,41.063-11.104,61.62c-1.062,6.027-1.811,12.129-3.285,18.052c-0.502,2.017-2.701,5.044-4.274,5.139
		c-16.187,0.981-32.513,2.811-48.565,1.507c-8.229-0.667-16.087-6.992-23.856-11.232c-1.433-0.782-2.294-3.822-2.297-5.823
		c-0.024-17.343,0.118-34.688,0.494-52.025c0.042-1.931,1.358-4.468,2.906-5.639c30.073-22.755,61.902-42.12,99.371-50.283
		C778.581,502.461,779.095,502.703,780.584,502.964z"/>
	<path fill-rule="evenodd" clip-rule="evenodd" fill="#CB2027" d="M347.072,485.913c2.396,0.536,10.16,5.757,15.413,9.354
		c2.686,1.838,4.654,4.705,7.02,7.033c6.204,6.109,6.013,6.67-1.042,11.923c-10.897,8.114-15.058,19.34-14.642,32.692
		c0.095,3.037-0.206,7.982-1.905,8.812c-4.493,2.193-10.746,4.836-14.674,3.257c-7.317-2.941-14.048-8.136-19.945-13.564
		c-4.538-4.178-4.826-9.89-4.042-16.918c0.572-5.125,1.431-8.561,3.504-13.318c4.368-13.491,11.377-20.489,21.88-26.715
		C340.5,487.367,341.954,486.02,347.072,485.913z"/>
	<path fill-rule="evenodd" clip-rule="evenodd" fill="#CB2027" d="M184.154,476.479c-16.034,9.457-21.708,23.081-19.247,40.541
		c0.219,1.554-1.6,4.055-3.154,5.095c-12.468,8.337-24.452,2.648-33.417-9.235c-9.774-12.955-3.337-25.633,1.104-38.275
		c3.238-9.216,9.606-15.438,18.605-18.942c9.781-3.809,20.225-0.869,26.568,7.44C177.692,467.132,180.515,471.355,184.154,476.479z"
		/>
	<path fill-rule="evenodd" clip-rule="evenodd" fill="#CB2027" d="M223.578,539.301c14.715-13.069,18.136-25.998,11.965-49.331
		c8.896-1.708,17.646-4.57,26.457-4.779c11.01-0.261,15.062,3.012,16.736,13.952c2.822,18.441,0.834,36.229-14.018,49.933
		C252.152,560.67,229.462,555.188,223.578,539.301z"/>
	<path fill-rule="evenodd" clip-rule="evenodd" fill="#CB2027" d="M437.305,467.005c-1.005-9.897-2.28-18.51-2.539-27.152
		c-0.09-2.996,1.478-7.284,3.762-8.9c12.169-8.61,24.65-16.81,37.328-24.66c10.506-6.504,21.434-12.327,33.104-18.981
		c0,11.534,0.171,22.391-0.166,33.232c-0.057,1.828-1.916,4.149-3.592,5.289c-12.098,8.232-24.159,16.551-36.64,24.176
		C458.741,456.009,448.337,461.056,437.305,467.005z"/>
	<path fill-rule="evenodd" clip-rule="evenodd" fill="#CB2027" d="M424.746,524.178c9.229-1.922,17.31-4.567,25.523-5.085
		c11.522-0.726,18.145,5.68,18.926,17.138c1.17,17.152-2.808,33.128-13.874,46.495c-5.407,6.53-13.989,7.589-21.823,6.383
		c-7.801-1.202-15.545-4.313-18.681-12.701c-0.677-1.812,0.624-5.238,2.146-6.854C428.963,556.81,432.334,542.497,424.746,524.178z"
		/>
	<path fill-rule="evenodd" clip-rule="evenodd" fill="#CB2027" d="M224.776,509.045c-0.163,11.876-11.375,22.136-23.9,21.869
		c-12.346-0.262-22.156-10.597-22.221-22.689c-0.065-12.053,12.197-21.916,24.031-21.881
		C214.952,486.381,224.944,496.874,224.776,509.045z"/>
	<path fill-rule="evenodd" clip-rule="evenodd" fill="#CB2027" d="M368.518,542.424c0.6-12.879,11.28-22.207,24.719-21.592
		c12.105,0.555,21.677,10.651,21.272,22.44c-0.417,12.165-12.323,22.807-24.728,22.053
		C380.508,564.762,367.175,554.611,368.518,542.424z"/>
</g>
</svg>
